<?xml version="1.0" encoding="UTF-8"?>
<svg id="svg1" xmlns="http://www.w3.org/2000/svg" version="1.1" xmlns:inkscape="http://www.inkscape.org/namespaces/inkscape" xmlns:sodipodi="http://sodipodi.sourceforge.net/DTD/sodipodi-0.dtd" xmlns:svg="http://www.w3.org/2000/svg" viewBox="0 0 690 690">
  <defs>
    <style>
      .cls-1 {
        fill: #1d1d1d;
      }

      .cls-1, .cls-2, .cls-3 {
        stroke-width: 0px;
      }

      .cls-2 {
        fill: #5bba47;
      }

      .cls-3 {
        fill: #bababa;
      }
    </style>
  </defs>
  <sodipodi:namedview id="namedview1" bordercolor="#000000" borderopacity="0.25" inkscape:current-layer="svg1" inkscape:cx="428.89299" inkscape:cy="318.39852" inkscape:deskcolor="#d1d1d1" inkscape:pagecheckerboard="0" inkscape:pageopacity="0.0" inkscape:showpageshadow="2" inkscape:window-height="1009" inkscape:window-maximized="1" inkscape:window-width="1920" inkscape:window-x="-8" inkscape:window-y="-8" inkscape:zoom="1.0317259" pagecolor="#ffffff"/>
  <g id="path1-2" inkscape:label="arrow">
    <path id="path10" class="cls-2" d="M62.1,558.2c-3-1.7-5.9-6.7-12.8-22-28.1-62.4-37-121.9-27.8-187.3,2.6-18.3,3.8-24.2,7.4-35.8,9-28.7,24.4-55,48.7-82.9,41-47.3,100.3-78.6,180.2-95.2,48.6-10.1,92.1-13.5,171.7-13.5h45s.3-43.7.3-43.7c.2-40.6.4-43.9,1.9-46.8,2.3-4.4,5.7-7.9,9.6-10,5-2.6,13.8-2,18.5,1.3,1.9,1.3,39.9,40,84.5,86,74.1,76.4,81.2,83.9,82.5,88,.8,2.4,1.4,5.9,1.4,7.6,0,7.9.3,7.6-85.9,96-44.9,46.1-82.9,84.5-84.5,85.3-9.6,4.9-20.5.7-26.1-10.2-1.5-2.9-1.6-6.2-1.9-46.4l-.3-43.3-61.6.5c-89.9.7-112.2,2.2-151,10.1-25.4,5.2-55,14.3-77.8,23.9-36.7,15.5-65.8,37-80.1,59-11,17-23.7,53.5-27.8,80-2.9,18.8-3.1,57.7-.4,82,1.1,10.1.4,14-3.3,17-2.5,2.1-7.5,2.3-10.5.6h0Z" inkscape:label="arrow_green"/>
    <path id="path11" class="cls-1" d="M492.4,1.2c-4.2,0-8.6.9-13.4,3.5-7.2,3.8-12.9,9.9-16.8,17.4-1,1.9-2.3,5.6-2.8,8.5-.5,2.9-.6,5.4-.8,8.9-.3,7-.4,17.9-.5,38.2l-.2,25.7h-28.6c-80,0-125.1,3.5-174.7,13.8-82.2,17.1-145.2,49.8-189.1,100.5-25.4,29.3-42.5,58-52.4,89.5-3.8,12.2-5.5,20.4-8.1,39-9.6,68.8,0,132.9,29.3,198,7.1,15.7,9.3,23.9,20,30l24.2,13.8v-13.4c1.2-.7,2.5-1.5,3.8-2.6,4.2-3.4,8.6-10.4,9.8-16.6s.7-11.3,0-17.1c-2.5-21.8-2.1-61.8.2-76.7,3.6-23.1,17-60.2,25-72.5,11.1-17.1,37.9-38,72.6-52.6,21.7-9.2,50.7-18.1,74.9-23,38.1-7.8,58.4-9.1,148.1-9.8l45-.3.2,25.2c.1,20.1.2,30.9.5,37.9.1,3.5.3,6,.8,8.9s1.8,6.5,2.8,8.5c9.2,17.8,30.3,26.5,47.6,17.6,3-1.5,2.7-1.7,3.2-2.1s.7-.6,1-.9c.6-.5,1.2-1.1,1.9-1.8,1.4-1.3,3.2-3.1,5.5-5.4,4.6-4.5,10.9-10.8,18.6-18.6,15.4-15.5,36.1-36.7,58.6-59.7,43.1-44.2,64.4-66.1,75.8-78.8s9-10.2,11.8-15.4,3.6-13.2,3.6-15c0-6.6-.9-9.1-2.3-13.7-2.7-8.4-6.6-11.6-18-23.8s-31.7-33.1-68.8-71.3c-22.3-23-43-44.2-58.3-59.8-7.7-7.8-14-14.2-18.6-18.8-2.3-2.3-4.1-4.1-5.5-5.5s-1.3-1.2-1.8-1.7,0-.4-2.5-2.1c-6-4.3-11.5-5.4-17.1-5.8-1.4,0-2.8-.1-4.2-.1ZM493.4,37.3c-1.4.7-.1,0,1.1.2.5,0,.9.2,1.3.3,0,0,.1.1.2.2,1.2,1.2,3,2.9,5.2,5.2,4.5,4.5,10.8,10.9,18.4,18.6,15.3,15.5,35.9,36.7,58.2,59.6,37.1,38.2,57.4,59.2,68.4,70.9,5.4,5.7,8.1,9.1,9.4,10.7-1.1,1.4-2.6,3.3-5,5.9-10.1,11.2-31.6,33.4-74.7,77.7-22.4,23-43.2,44.1-58.4,59.5-7.6,7.7-13.9,14-18.3,18.3-2.1,2.1-3.7,3.7-4.9,4.7-.8.1-1.5-.3-2.4-1.7,0-.5,0-.8-.2-2.6-.2-5.5-.3-16.4-.5-36.5l-.4-61.4-78.1.6c-90,.7-114.3,2.3-153.9,10.4-26.6,5.4-56.7,14.7-80.8,24.8-38.7,16.4-70.2,38.5-87.6,65.5-14,21.6-26,57.6-30.6,87.4-2.3,15-3,36.3-2.4,56.8-21.5-53.6-27.6-104.2-19.7-160.8,2.5-18,3.3-21.7,6.7-32.7,8.1-25.9,22-49.7,45.1-76.4,38-43.9,93.6-73.7,171.3-89.9,47.5-9.8,89.5-13.2,168.6-13.2h61.5s.4-61.7.4-61.7c.1-20.3.2-31.3.4-36.8,0-1.7.1-1.8.2-2.4.5-.6,1.1-1.2,1.6-1.4h0ZM493.5,370c-.2.1-.3.3-.4.4,0,0,.1-.2.4-.4Z" inkscape:label="arrow_stroke"/>
    <path id="path16" class="cls-3" d="M82.4,316c41.7-56.2,124.2-95.9,201.6-111.5,83.8-16.8,235.5-32.2,260.7-25.2,25.3,7,41.1,35.1,12.6,47.5-36.5,15.8-172.9-6.4-255.9,4.8s-166.3,41-219.1,84.3h0Z" inkscape:label="highlight" sodipodi:nodetypes="cszzzc"/>
  </g>
  <g id="layer2" inkscape:groupmode="layer" inkscape:label="SK">
    <path id="path13" class="cls-1" d="M350.1,400.5c-13.6,0-27,1.7-39.9,5.6,0,0-.1,0-.2,0-12.4,3.8-24.4,9.5-35,17.6-.1,0-.2.2-.3.3-10.6,8.2-19.7,19-25.9,31.1-6.5,12.7-9.6,27.2-9.6,41s2.1,24.6,7.4,36.5c0,.1.1.2.2.3,2.4,5.2,5.4,10,8.7,14.5-14.8,8.4-23.6,24.4-22.8,41.3.9,14,4.3,28.1,10.5,41.1,0,0,0,.2.1.3,6.5,13.2,16.2,25,27.7,34,.2.2.5.4.7.5,11.8,8.9,25.2,15,39.2,19.1.2,0,.3,0,.5.1,14.7,4.1,29.9,5.7,46,5.7s27.9-1.9,41.2-6.2c.1,0,.2,0,.4-.1,12.9-4.2,25.3-10.6,36.2-19.3,0,0,0,0,0,0,6-4.8,11.4-10.5,16.2-16.7,3.1,22,21.7,38.4,43.9,38.8h14c24.9,0,45.2-20.2,45.2-45.2v-19.8l33.9,46.4c8.5,11.6,22,18.5,36.5,18.5h18.7c24.9,0,45.2-20.2,45.2-45.2,0-9.7-3.1-19.1-8.8-26.8l-61.6-83.3,50.6-49.2c17.9-17.4,18.3-46,.9-63.9-8.5-8.7-20.2-13.7-32.4-13.7h-19.4c-11.7,0-23,4.6-31.4,12.7l-32.3,31.3c-.6-24.4-20.5-44-44.9-44.1h-14c-24.7,0-44.8,19.9-45.1,44.6-6.8-10.4-15.6-19.5-25.7-26.6-10.8-7.6-22.8-13-35.3-16.4-12.7-3.6-25.8-5.2-39-5.2h0ZM384.9,418.9l.9.3c-.2,0-.4-.1-.7-.2,0,0-.2,0-.3-.1h0ZM414.8,432.5l1.1.7c-.2-.1-.3-.2-.5-.3-.2-.1-.4-.3-.6-.4ZM451.6,450.8l.3.5c0,0-.1-.2-.2-.3,0,0,0-.2-.1-.3ZM397.3,497.5h.2c0,0,0,0,0,0,0,0-.1,0-.2,0h0ZM445.1,524.2l.5.5c0,0-.1-.1-.2-.2-.1-.1-.2-.2-.3-.3ZM463.9,551.4v.3c.1,0,.1,0,.1,0,0-.1,0-.2-.1-.4h0ZM448.4,554.2l.2.4c0,0,0-.1-.1-.2,0,0,0-.2,0-.2h0ZM461.4,631.2v.3c-.1,0-.1,0,0-.1,0,0,0-.1,0-.2h0Z" inkscape:label="sk_stroke_black"/>
    <path id="path15" class="cls-2" d="M350.1,427.5c-11.3,0-22.1,1.4-32.2,4.4,0,0,0,0,0,0-9.8,3-18.8,7.3-26.5,13.2,0,0,0,0-.1.1-7.7,5.9-14,13.4-18.3,22-4.5,8.8-6.7,18.7-6.7,28.7s1.5,17.6,5.1,25.6c0,0,0,0,0,.1,3.6,7.8,9.1,14.7,15.7,20.2,0,0,.1.1.2.2,6.6,5.4,14.4,9.7,23.1,13.2,0,0,0,0,0,0,8.8,3.5,18.7,6.4,29.9,8.9,0,0,.1,0,.2,0,12.4,2.6,22.6,5.1,30.4,7.5,0,0,0,0,0,0,7.6,2.3,13.1,4.7,16.4,6.8,3.1,1.9,4.1,3.4,4.6,4.3,0,0,0,.1,0,.2.6,1.1,1.3,3.5,1.3,7.8s-.6,5.8-1.8,8c-1.2,2.1-2.8,4.1-5.7,6.1-2.7,1.9-6.5,3.7-11.7,5.1-5,1.3-11.1,2-18.3,2s-13.7-.6-19.7-1.8c-5.4-1-9.8-2.7-13.6-4.9-3.3-2-6-4.5-8.5-8.2-2.1-3.1-3.9-7.6-5-14.3-1.4-8.8-9-15.2-17.9-15.2h-13.8c-10,0-18.1,8.1-18.1,18.1,0,.4,0,.8,0,1.2.7,11,3.3,21.5,7.9,31,0,0,0,0,0,.1,4.7,9.6,11.6,18,20.1,24.6,0,0,.2.1.3.2,8.7,6.6,19,11.4,30.4,14.7,0,0,.1,0,.2,0,11.7,3.2,24.6,4.7,38.8,4.7s22.6-1.6,33-4.9c0,0,0,0,.1,0,10.3-3.4,19.6-8.2,27.6-14.7h0c8-6.5,14.6-14.5,19.1-23.6,4.8-9.5,7.2-20,7.2-30.7s-1.5-17.7-5-25.6c-3.1-7.2-7.4-13.7-13-19.2-5.2-5.2-11.2-9.4-17.9-12.7-6-3-12.4-5.5-19-7.6-6.1-1.9-12.4-3.6-18.9-5-6-1.3-11.8-2.5-17.5-3.7,0,0,0,0,0,0-9-1.9-16.3-3.8-21.6-5.7-5-1.8-8.5-3.7-10.6-5.2-1.7-1.4-2.4-2.5-2.7-3-.4-1-.9-2.8-.9-5.9,0-6.1.9-7.8,5.5-11.2,4.4-3.1,13.6-6.1,28.5-6.1s12.3.8,16.6,2.1c.1,0,.3,0,.4.1,4.7,1.3,8.1,3,10.7,4.8.1.1.3.2.4.3,2.9,1.9,4.8,3.9,6.4,6.3,1.8,2.8,3.1,5.6,3.9,8.8,2,8.1,9.3,13.7,17.6,13.7h13.5c10,0,18.1-8.1,18.1-18.1,0-.8,0-1.6-.2-2.4-1.3-10-4.6-19.6-9.9-28.1-5-8.3-11.8-15.5-19.9-21.1-8-5.7-17.1-9.8-26.9-12.5-10-2.8-20.6-4.2-31.8-4.2h0ZM495.2,431c-10,0-18.1,8.1-18.1,18.1v191.7c0,10,8.1,18.1,18.1,18.1h14c10,0,18.1-8.1,18.1-18.1v-59.2l18.6-18,64.2,87.9c3.4,4.7,8.8,7.4,14.6,7.4h18.7c10,0,18.1-8.1,18.1-18.1,0-3.9-1.2-7.6-3.5-10.8l-75.7-102.3,67.6-65.6c7.2-7,7.3-18.4.4-25.6-3.4-3.5-8.1-5.5-13-5.5h-19.4c-4.7,0-9.2,1.8-12.6,5.1l-78,75.6v-62.6c0-10-8.1-18.1-18.1-18.1h-14ZM377.8,445h.4c0,0-.1,0-.2,0,0,0-.1,0-.2,0h0ZM399.6,454.9l.4.3c0,0-.1,0-.2-.1,0,0-.1-.1-.2-.2h0ZM424.3,566.5v.2c0,0,0,0,0,0,0,0,0,0,0,0h0Z" inkscape:label="sk_green"/>
  </g>
</svg>