<?xml version="1.0" encoding="UTF-8"?>
<svg id="Layer_1" data-name="Layer 1" xmlns="http://www.w3.org/2000/svg" version="1.1" viewBox="0 0 512 512">
  <defs>
    <style>
      .cls-1 {
        fill: #1d1d1d;
      }

      .cls-1, .cls-2, .cls-3 {
        stroke-width: 0px;
      }

      .cls-2 {
        fill: #5bba47;
      }

      .cls-2, .cls-3 {
        fill-rule: evenodd;
      }

      .cls-3 {
        fill: #bdbdbd;
      }
    </style>
  </defs>
  <g id="dev_screwdriver">
    <g>
      <g>
        <polygon class="cls-3" points="348.7 412.7 332.5 364.8 219.1 251.5 247.7 222.9 361 336.2 407.8 351.6 460.3 438.7 434.9 464.1 348.7 412.7"/>
        <path class="cls-1" d="M247.7,237.1l107.9,107.9,45.5,14.9,46.6,77.2-14.4,14.4-76.3-45.6-15.8-46.6-107.9-107.9,14.4-14.4M247.7,208.8l-14.1,14.2-14.4,14.4-14.1,14.1,14.1,14.1,104.6,104.6,14.3,42.2,2.4,7,6.3,3.8,76.3,45.6,13.4,8,11-11,14.4-14.4,11-11.1-8.1-13.4-46.6-77.2-3.8-6.4-7.1-2.3-41-13.4-104.6-104.5-14.2-14.2h0Z"/>
      </g>
      <g>
        <path class="cls-2" d="M160.4,258.3l13.9-14.1c-3.9-1.6-7.4-4-10.4-7L49.1,121c-13.5-13.6-12.3-37,2.8-52.3l12.7-12.9c7.8-7.9,18.2-12.4,28.6-12.4s17.3,3.4,23.4,9.5l114.8,116.2c3,3,5.3,6.6,6.9,10.4l16.3-16.4,31.8,32.1-94.2,95-31.9-32.1Z"/>
        <path class="cls-1" d="M93.2,53.5c6.1,0,12,2.2,16.3,6.6l114.8,116.2c6.9,7,8.2,17.7,4.3,27.4l26-26.2,17.8,17.9-80.1,80.8-17.8-17.9,23.6-23.8c-3.5,1.5-7.2,2.2-10.8,2.2-6.1,0-11.8-2.1-16.2-6.5L56.3,114c-9.7-9.8-8.4-26.9,2.8-38.2l12.7-12.8c6.2-6.2,14-9.4,21.5-9.4M93.2,33.5s0,0,0,0c-13,0-26,5.6-35.7,15.3l-12.7,12.8h0s0,0,0,0c-8.7,8.9-14,20.4-14.9,32.3-.9,12.9,3.5,25.3,12.2,34l114.7,116.2c.6.6,1.1,1.1,1.7,1.7l-12.2,12.4,14,14.1,17.8,17.9,14.2,14.3,14.2-14.3,80.1-80.8,14-14.1-14-14.1-17.8-17.9-14.2-14.3-14.2,14.3-.4.4c-.5-.5-.9-1-1.4-1.5h0s0,0,0,0L123.7,46c-8-8.1-18.8-12.5-30.6-12.5h0Z"/>
      </g>
    </g>
  </g>
</svg>