<?xml version="1.0" encoding="UTF-8"?>
<svg id="Layer_1" data-name="Layer 1" xmlns="http://www.w3.org/2000/svg" version="1.1" viewBox="0 0 512 512">
  <defs>
    <style>
      .cls-1 {
        fill: #1d1d1d;
      }

      .cls-1, .cls-2, .cls-3 {
        stroke-width: 0px;
      }

      .cls-2 {
        fill: #5bba47;
      }

      .cls-3 {
        fill: #474747;
      }
    </style>
  </defs>
  <g id="ui_new">
    <g>
      <path class="cls-2" d="M141.8,454.9c-11,0-19.9-8.9-19.9-19.9V77c0-11,8.9-19.9,19.9-19.9h149.2c5.4,0,10.4,2.1,14.1,5.8l89.5,89.5c3.7,3.7,5.8,8.9,5.8,14.2v268.4c0,11-8.9,19.9-19.9,19.9h-238.6Z"/>
      <path class="cls-1" d="M291,62.1c3.9,0,7.7,1.6,10.5,4.3l89.5,89.5c2.8,2.8,4.3,6.6,4.3,10.6v268.5c0,8.2-6.7,14.9-14.9,14.9h-238.6c-8.2,0-14.9-6.7-14.9-14.9V77c0-8.2,6.7-14.9,14.9-14.9h149.2s0,0,0,0M291,52.1h-149.2c-13.7,0-24.9,11.2-24.9,24.9v358c0,13.7,11.2,24.9,24.9,24.9h238.6c13.7,0,24.9-11.2,24.9-24.9V166.5c0-6.6-2.6-13-7.2-17.7l-89.5-89.5c-4.7-4.7-11-7.3-17.6-7.3h0Z"/>
    </g>
    <path class="cls-3" d="M301.5,66.4c-2.8-2.8-6.6-4.3-10.6-4.3v89.5c0,8.2,6.7,14.9,14.9,14.9h89.5c0-4-1.5-7.8-4.3-10.6l-89.5-89.5Z"/>
    <path class="cls-1" d="M276,248.5h-74.6c-8.2,0-14.9-6.7-14.9-14.9s6.7-14.9,14.9-14.9h74.6c8.2,0,14.9,6.7,14.9,14.9,0,8.2-6.7,14.9-14.9,14.9Z"/>
    <path class="cls-1" d="M320.7,308.2h-119.3c-8.2,0-14.9-6.7-14.9-14.9s6.7-14.9,14.9-14.9h119.3c8.2,0,14.9,6.7,14.9,14.9,0,8.2-6.7,14.9-14.9,14.9Z"/>
    <path class="cls-1" d="M320.7,367.9h-119.3c-8.2,0-14.9-6.7-14.9-14.9s6.7-14.9,14.9-14.9h119.3c8.2,0,14.9,6.7,14.9,14.9s-6.7,14.9-14.9,14.9Z"/>
  </g>
</svg>