<?xml version="1.0" encoding="UTF-8"?>
<svg id="Layer_1" data-name="Layer 1" xmlns="http://www.w3.org/2000/svg" version="1.1" xmlns:xlink="http://www.w3.org/1999/xlink" viewBox="0 0 512 512">
  <defs>
    <style>
      .cls-1 {
        fill: url(#linear-gradient);
        fill-rule: evenodd;
        stroke: #1d1d1d;
        stroke-miterlimit: 10;
        stroke-width: 9px;
      }

      .cls-2 {
        fill: #bdbdbd;
      }

      .cls-2, .cls-3 {
        stroke-width: 0px;
      }

      .cls-3 {
        fill: #ff9931;
      }
    </style>
    <linearGradient id="linear-gradient" x1="48.3" y1="256" x2="463.5" y2="256" gradientUnits="userSpaceOnUse">
      <stop offset="0" stop-color="#ffcb4b"/>
      <stop offset="1" stop-color="#ffd748"/>
    </linearGradient>
  </defs>
  <path class="cls-1" d="M422.1,381.7c-7.1,0-13.8,1.9-19.7,5l-90.2-90.6c5.7-8,9.8-17.2,11.7-27.3h31.4c5.6,15.9,20.9,27.5,39.1,27.5s41.5-18.1,41.5-40.4-18.6-40.4-41.5-40.4-34.2,12-39.5,28.5h-31c-1.7-9.6-5.3-18.6-10.6-26.4l91.1-91.4c5.4,2.5,11.3,4,17.6,4,23,0,41.5-18.1,41.5-40.4s-18.6-40.4-41.5-40.4-41.5,18.1-41.5,40.4,2.1,13.9,5.5,19.8l-90.1,90.5c-8.1-5.7-17.4-9.8-27.6-11.6v-32.7c16.8-5.1,29.1-20.2,29.1-38.3s-18.6-40.4-41.5-40.4-41.5,18.1-41.5,40.4,12.3,33.3,29.3,38.4v32.6c-10.1,1.8-19.4,5.7-27.4,11.3l-90.3-90.6c3.3-5.8,5.3-12.3,5.3-19.4,0-22.3-18.6-40.4-41.5-40.4s-41.5,18.1-41.5,40.4,18.6,40.4,41.5,40.4,12.6-1.6,18.1-4.2l91,91.3c-5.4,7.9-9.1,17-10.9,26.8h-31c-5.2-16.5-20.8-28.5-39.5-28.5s-41.5,18.1-41.5,40.4,18.6,40.4,41.5,40.4,33.6-11.5,39.1-27.5h31.4c1.9,10.2,6.1,19.6,12,27.7l-90.1,90.4c-6-3.2-12.8-5.2-20.1-5.2-22.9,0-41.5,18.1-41.5,40.4s18.6,40.4,41.5,40.4,41.5-18.1,41.5-40.4-1.6-12.1-4.2-17.3l90.7-91.1c7.7,5.1,16.4,8.6,25.9,10.2v32.1c-16.9,5.1-29.3,20.2-29.3,38.4s18.6,40.4,41.5,40.4,41.5-18.1,41.5-40.4-12.3-33.2-29.1-38.3v-32.2c9.5-1.7,18.4-5.3,26.1-10.4l90.5,90.8c-2.7,5.4-4.4,11.4-4.4,17.8,0,22.3,18.6,40.4,41.5,40.4s41.5-18.1,41.5-40.4-18.6-40.5-41.5-40.5h0Z"/>
  <ellipse class="cls-3" cx="90" cy="89.8" rx="37.8" ry="36.2"/>
  <circle class="cls-3" cx="422.3" cy="422.3" r="37.2"/>
  <ellipse class="cls-3" cx="90" cy="421.6" rx="37.8" ry="36.5"/>
  <ellipse class="cls-3" cx="421.6" cy="90.7" rx="38.4" ry="37.1"/>
  <ellipse class="cls-2" cx="117.5" cy="256" rx="37.8" ry="36.5"/>
  <ellipse class="cls-2" cx="394.4" cy="255.5" rx="37.8" ry="36.5"/>
  <ellipse class="cls-2" cx="256" cy="394" rx="37.8" ry="36.5"/>
  <ellipse class="cls-2" cx="256" cy="117.1" rx="37.8" ry="36.5"/>
</svg>