<?xml version="1.0" encoding="UTF-8"?>
<svg id="Layer_1" data-name="Layer 1" xmlns="http://www.w3.org/2000/svg" version="1.1" xmlns:xlink="http://www.w3.org/1999/xlink" viewBox="0 0 512 512">
  <defs>
    <style>
      .cls-1 {
        fill: url(#linear-gradient);
        stroke-width: 5px;
      }

      .cls-1, .cls-2 {
        fill-rule: evenodd;
        stroke: #1d1d1d;
        stroke-miterlimit: 10;
      }

      .cls-2 {
        fill: #ff9931;
        stroke-width: 6px;
      }
    </style>
    <linearGradient id="linear-gradient" x1="97.5" y1="249" x2="410.6" y2="249" gradientUnits="userSpaceOnUse">
      <stop offset="0" stop-color="#ffcb4b"/>
      <stop offset="1" stop-color="#ffd748"/>
    </linearGradient>
  </defs>
  <path class="cls-2" d="M229.3,54.3c1.6,7.9-3.5,15.7-11.5,17.3-70.9,14.4-126.8,70.3-141.2,141.2-1.6,7.9-9.4,13.1-17.3,11.5-7.9-1.6-13.1-9.4-11.5-17.3C64.6,124.5,129.5,59.6,212,42.9c7.9-1.6,15.7,3.5,17.3,11.5Z"/>
  <path class="cls-2" d="M59.3,273.8c7.9-1.6,15.7,3.5,17.3,11.5,14.4,70.9,70.3,126.8,141.2,141.2,7.9,1.6,13.1,9.4,11.5,17.3-1.6,7.9-9.4,13.1-17.3,11.5-82.5-16.7-147.4-81.7-164.1-164.1-1.6-7.9,3.5-15.7,11.5-17.3Z"/>
  <path class="cls-2" d="M278.8,54.3c1.6-7.9,9.4-13.1,17.3-11.5,82.5,16.7,147.4,81.7,164.1,164.1,1.6,7.9-3.5,15.7-11.5,17.3-7.9,1.6-15.7-3.5-17.3-11.5-14.4-70.9-70.3-126.8-141.2-141.2-7.9-1.6-13.1-9.4-11.5-17.3Z"/>
  <path class="cls-2" d="M448.8,273.8c7.9,1.6,13.1,9.4,11.5,17.3-16.7,82.5-81.7,147.4-164.1,164.1-7.9,1.6-15.7-3.5-17.3-11.5-1.6-7.9,3.5-15.7,11.5-17.3,70.9-14.4,126.8-70.3,141.2-141.2,1.6-7.9,9.4-13.1,17.3-11.5Z"/>
  <path class="cls-1" d="M254,405.6c86.5,0,156.6-70.1,156.6-156.6s-70.1-156.6-156.6-156.6S97.5,162.6,97.5,249s70.1,156.6,156.6,156.6ZM190.9,301.5c4.8-6.5,14-7.9,20.5-3,12.2,9,26.9,14.2,42.6,14.2s30.5-5.2,42.6-14.2c6.5-4.8,15.7-3.5,20.5,3,4.8,6.5,3.5,15.7-3,20.5-17,12.6-37.7,20-60.1,20s-43.2-7.4-60.1-20c-6.5-4.8-7.9-14-3.1-20.5ZM322.5,216c0,14.2-7.7,25.7-17.1,25.7s-17.1-11.5-17.1-25.7,7.7-25.7,17.1-25.7,17.1,11.5,17.1,25.7ZM202.7,241.7c9.5,0,17.1-11.5,17.1-25.7s-7.7-25.7-17.1-25.7-17.1,11.5-17.1,25.7,7.7,25.7,17.1,25.7Z"/>
</svg>