<?xml version="1.0" encoding="UTF-8"?>
<svg id="Layer_1" data-name="Layer 1" xmlns="http://www.w3.org/2000/svg" version="1.1" viewBox="0 0 512 512">
  <defs>
    <style>
      .cls-1 {
        fill: #bdbdbd;
      }

      .cls-1, .cls-2 {
        stroke-width: 0px;
      }

      .cls-2 {
        fill: #2b2b2b;
      }
    </style>
  </defs>
  <g id="rigger_template_biped">
    <g>
      <path class="cls-1" d="M290.7,484.2c-7.3,0-14.2-3.2-19-8.8-4.7-5.5-6.8-12.8-5.8-20.1l10.8-71.8c1.7-11.4-3-22.7-12.2-29.5l-40-29.5-18.2,42.5c-9.8,23-32.4,37.9-57.4,37.9s-7.7-.4-11.5-1.1l-51.7-9.7c-6.7-1.2-12.6-5.3-16.1-11-3.6-5.8-4.6-12.8-2.8-19.4,2.9-10.4,12.5-17.7,23.3-17.7s.7,0,1.1,0l51.2,2.3c.2,0,.4,0,.5,0,5.4,0,10.1-3.4,11.7-8.6l17.5-55.6c1.6-5.2,3.7-10.3,6.2-15.2l41.1-80.7-25.1-8.6c-1.3-.4-2.6-.7-4-.7-3.6,0-7.1,1.6-9.4,4.4l-26.7,31.9c-4.8,5.7-11.8,9-19.2,9-10.9,0-20.5-7-23.9-17.3-3.4-10.4-2.1-19.3,3.8-26.4l28.7-34.2c11.9-14.2,29.3-22.3,47.8-22.3s8,.4,12,1.2c56.2,11,99.5,28.7,140.4,57.4,2,1.4,4.1,2.1,6.5,2.1,6.2,0,13.7-4.4,20.3-8.2,2.3-1.4,4.5-2.6,6.7-3.8,3.6-1.9,7.6-2.8,11.6-2.8,10.9,0,20.5,7,23.9,17.3,3.8,11.7.6,23.1-8.4,29.7-19.3,14.2-37.8,21.2-56.6,21.2s-13.9-1-20.8-2.9l-24.6-6.9-31.3,61.4,39.5,33.1c16.5,13.9,24.8,35.8,21.6,57.1l-12.2,81.4c-2.3,15.3-16.4,19.9-21.7,21.6-2.6.8-5.2,1.2-7.8,1.2ZM306.1,143.9c-23.1,0-43.3-14.7-50.5-36.7-4.4-13.5-3.3-27.9,3.2-40.5,6.4-12.6,17.4-22,30.9-26.4,5.3-1.7,10.9-2.6,16.4-2.6,23.1,0,43.3,14.7,50.5,36.7,4.4,13.5,3.3,27.9-3.2,40.5s-17.4,22-30.9,26.4c-5.3,1.7-10.9,2.6-16.4,2.6t0,0Z"/>
      <path class="cls-2" d="M306.1,44.1c19.7,0,38,12.5,44.4,32.3,8,24.5-5.4,50.9-30,58.8-4.8,1.6-9.7,2.3-14.4,2.3-19.7,0-38-12.5-44.4-32.3-8-24.5,5.4-50.9,30-58.8,4.8-1.6,9.7-2.3,14.4-2.3M191.7,130.5c3.6,0,7.2.3,10.7,1,51.3,10,95.4,26.5,137.9,56.4,3.3,2.3,6.7,3.2,10.2,3.2,10.4,0,21.3-8.2,29.9-12.7,2.8-1.4,5.7-2.1,8.6-2.1,7.8,0,15.2,4.9,17.8,12.9,2.7,8.2,1.3,17.1-6.1,22.6-16.1,11.9-33.6,19.9-52.8,19.9s-12.6-.8-19.1-2.7l-29.7-8.3-35.9,70.6,43.4,36.4c15,12.5,22.3,32,19.4,51.3l-12.2,81.4c-1.5,9.7-9,13.8-17.4,16.5-2,.6-3.9.9-5.8.9-10.9,0-20.2-9.8-18.4-21.5l10.8-71.8c2.1-13.7-3.6-27.4-14.7-35.6l-46.5-34.4-21.4,50c-8.9,20.9-29.4,34-51.5,34s-6.9-.3-10.3-1l-51.7-9.7c-10.3-1.9-16.7-12.3-13.9-22.4,2.2-7.7,9.2-13,17.2-13,.3,0,.5,0,.8,0l51.2,2.3c.3,0,.6,0,.8,0,8.1,0,15.3-5.3,17.8-13.1l17.5-55.6c1.5-4.9,3.5-9.7,5.8-14.3l44.4-87.3-32.1-10.9c-2-.7-4-1-6-1-5.4,0-10.7,2.4-14.3,6.7l-26.7,31.9c-3.8,4.6-9.1,6.7-14.2,6.7-7.6,0-15.1-4.6-17.8-12.9-2.3-7-2.4-14.3,2.6-20.3l28.7-34.3c10.8-12.8,26.5-20,42.9-20M306.1,31.3c-6.2,0-12.4,1-18.4,2.9-15.1,4.9-27.4,15.4-34.6,29.6-7.2,14.2-8.5,30.3-3.6,45.4,3.4,10.5,9.5,19.5,17.4,26.4-19.1-6.8-39.5-12.2-62-16.6-4.3-.8-8.8-1.3-13.2-1.3-20.4,0-39.6,9-52.7,24.6l-28.7,34.3c-5.1,6.1-10.1,16.7-5,32.5,4.2,13,16.3,21.8,30,21.8s18.1-4.1,24.1-11.3l26.7-31.9c1.1-1.3,2.8-2.1,4.5-2.1s1.3.1,1.9.3l18.1,6.2-37.7,74.1c-2.6,5.2-4.9,10.6-6.6,16.2l-17.5,55.6c-.8,2.5-3,4.1-5.6,4.1s-.2,0-.3,0l-51.2-2.3c-.5,0-.9,0-1.4,0-13.7,0-25.8,9.2-29.5,22.4-2.3,8.3-1,17.2,3.5,24.5,4.5,7.3,12,12.4,20.4,13.9l51.7,9.7c4.2.8,8.4,1.2,12.7,1.2,27.6,0,52.4-16.4,63.3-41.8l15-35.1,33.5,24.7c7.3,5.4,11,14.4,9.7,23.4l-10.8,71.8c-1.4,9.1,1.3,18.3,7.2,25.2,6,7,14.7,11,23.8,11s6.6-.5,9.8-1.6c5.7-1.9,23.2-7.5,26.1-26.8l12.2-81.4c1.7-11.6.5-23.6-3.7-34.6-4.2-11-11.1-20.8-20.1-28.4l-35.6-29.9,26.6-52.2,19.5,5.5c7.5,2.1,15,3.2,22.6,3.2,20.2,0,40-7.3,60.4-22.4,11.3-8.3,15.3-22.4,10.7-36.8-4.2-13-16.3-21.8-30-21.8s-10,1.2-14.5,3.6c-2.3,1.2-4.7,2.6-7,3.9-5.6,3.3-12.6,7.4-17.1,7.4s-1.9-.2-2.8-.9c-14.9-10.5-30.1-19.5-46.1-27.3,1.5.1,3,.2,4.5.2,6.2,0,12.4-1,18.4-2.9,15.1-4.9,27.4-15.4,34.6-29.6s8.5-30.3,3.6-45.4c-8-24.6-30.7-41.1-56.6-41.1h0Z"/>
    </g>
  </g>
</svg>